<svg data-v-2cb57da0="" version="1.0" xmlns="http://www.w3.org/2000/svg" xmlns:xlink="http://www.w3.org/1999/xlink" width="100%" height="100%" viewBox="0 0 340.000000 250.000000" preserveAspectRatio="xMidYMid meet" color-interpolation-filters="sRGB" style="margin: auto;"><rect data-v-2cb57da0="" x="0" y="0" width="100%" height="100%" fill="#fff" fill-opacity="1" class="background"></rect> <rect data-v-2cb57da0="" x="0" y="0" width="100%" height="100%" fill="url(#watermark)" fill-opacity="1" class="watermarklayer"></rect> <g data-v-2cb57da0="" fill="#25bcbd" class="icon-text-wrapper icon-svg-group iconsvg" transform="translate(8.831161499023438,79.81791687011719)"><g fill="#25bcbd" class="iconsvg-imagesvg icon_container" transform="translate(0,0)"><rect fill="#25bcbd" fill-opacity="0" stroke-width="2" x="0" y="0" width="90.36416759540947" height="90.36416759540947" class="image-rect"></rect> <svg viewBox="0 0 60 60" x="0" y="0" width="90.36416759540947" height="90.36416759540947" class="image-svg-svg bn" style="overflow: visible;"><g hollow-target="iconBnFill" mask="url(#11ef5019-4bf2-4ffe-85b3-ced30fa7edc3)"><g><svg fill="#000000" xmlns="http://www.w3.org/2000/svg" xmlns:xlink="http://www.w3.org/1999/xlink" xml:space="preserve" version="1.1" style="shape-rendering: geometricprecision; text-rendering: geometricprecision; overflow: visible;" viewBox="0 0 249 249" x="0" y="0" fill-rule="evenodd" clip-rule="evenodd" width="60" height="60" filtersec="colorsb8271659935" filter="url(#p9a7HnIWArJSNn6RNAZLP)"><g transform="scale(1, 1) skewX(0)"><defs><filter id="p9a7HnIWArJSNn6RNAZLP"><feColorMatrix type="matrix" values="0 0 0 0 0.14453125  0 0 0 0 0.734375  0 0 0 0 0.73828125  0 0 0 1 0"></feColorMatrix></filter></defs><g><path class="fil0" d="M125 0c68,0 124,56 124,125 0,68 -56,124 -124,124 -69,0 -125,-56 -125,-124 0,-69 56,-125 125,-125z"></path></g></g></svg></g> <g><svg xmlns="http://www.w3.org/2000/svg" viewBox="0 8.699999809265137 618.0999755859375 620.5999755859375" width="40" height="40" x="10" y="10" class="image-svg-icon"><path d="M136.5 183.6H149c1.7 0 3-1.4 3-3v-12.5c0-1.7-1.4-3-3-3h-12.5c-1.7 0-3 1.4-3 3v12.5c-.1 1.7 1.3 3 3 3zM112.9 280.3v14.8c0 2 1.6 3.6 3.6 3.6h14.8c2 0 3.6-1.6 3.6-3.6v-14.8c0-2-1.6-3.6-3.6-3.6h-14.8c-2 0-3.6 1.6-3.6 3.6zM36.1 305.8v-24.3c0-3.2-2.6-5.9-5.9-5.9H5.9c-3.2 0-5.9 2.6-5.9 5.9v24.3c0 3.2 2.6 5.9 5.9 5.9h24.3c3.2 0 5.9-2.7 5.9-5.9zM42.6 260.9h58.5c7.8 0 14.2-6.4 14.2-14.2v-58.5c0-7.8-6.4-14.2-14.2-14.2H42.6c-7.8 0-14.2 6.4-14.2 14.2v58.5c0 7.8 6.4 14.2 14.2 14.2zM154.2 148.9h65.5c8.7 0 15.9-7.1 15.9-15.9V67.6c0-8.7-7.1-15.9-15.9-15.9h-65.5c-8.7 0-15.9 7.1-15.9 15.9v65.5c.1 8.7 7.2 15.8 15.9 15.8zM478.5 160h83.7c4.9 0 9.5.9 13.8 2.6-13.5-23.1-29.9-44.3-48.7-63.1C471.2 43.4 393.6 8.7 307.9 8.7V123.8c53.5 0 102 21.5 137.2 56.4 6.4-12 19-20.2 33.4-20.2zM261.7 118.2c-2.3 0-4.1 1.8-4.1 4.1v16.9c0 2.3 1.8 4.1 4.1 4.1h16.9c2.3 0 4.1-1.8 4.1-4.1v-16.9c0-2.3-1.8-4.1-4.1-4.1h-16.9zM77.5 153h26.1c3.5 0 6.3-2.8 6.3-6.3v-26.1c0-3.5-2.8-6.3-6.3-6.3H77.5c-3.5 0-6.3 2.8-6.3 6.3v26.1c0 3.4 2.9 6.3 6.3 6.3zM282.1 530.8h-13.2c-1.8 0-3.2 1.4-3.2 3.2v13.2c0 1.8 1.4 3.2 3.2 3.2h13.2c1.8 0 3.2-1.4 3.2-3.2V534c0-1.8-1.5-3.2-3.2-3.2zM599.8 281.4c0 20.7-16.9 37.7-37.7 37.7H503c0 107.8-87.4 195.1-195.2 195.1V629.3c85.7 0 163.3-34.7 219.4-90.9 56.1-56.1 90.9-133.7 90.9-219.4 0-37-6.5-72.5-18.4-105.4v67.8zM112.1 473.8H78.8c-4.4 0-8.1 3.6-8.1 8.1v33.3c0 4.4 3.6 8.1 8.1 8.1h33.3c4.4 0 8.1-3.6 8.1-8.1v-33.3c-.1-4.5-3.7-8.1-8.1-8.1zM282 460.2v-24.3c0-3.2-2.6-5.9-5.9-5.9h-24.3c-3.2 0-5.9 2.6-5.9 5.9v24.3c0 3.2 2.6 5.9 5.9 5.9h24.3c3.3 0 5.9-2.7 5.9-5.9zM230 493.4h-65.4c-8.7 0-15.9 7.1-15.9 15.9v65.4c0 8.7 7.1 15.9 15.9 15.9H230c8.7 0 15.9-7.1 15.9-15.9v-65.4c-.1-8.7-7.2-15.9-15.9-15.9zM253.2 390v-48.6c0-6.5-5.3-11.8-11.8-11.8h-48.6c-6.5 0-11.8 5.3-11.8 11.8V390c0 6.5 5.3 11.8 11.8 11.8h48.6c6.5 0 11.8-5.3 11.8-11.8z" fill="#25bcbd"></path><linearGradient id="a23ca9a45-1be7-40b5-9436-d6ce29d47b8b" gradientUnits="userSpaceOnUse" x1="20.209" y1="314.098" x2="582.468" y2="314.098"><stop offset="0" stop-color="#25bcbd"></stop><stop offset="1" stop-color="#c2d72e"></stop></linearGradient><path d="M179.9 300.5c2.1.7 4.3 1.1 6.6 1.1h83.7c2.3 0 4.6-.4 6.6-1.1l37.4 37.4c-1.3 2.7-2 5.7-2 8.8v83.7c0 11.2 9.1 20.3 20.3 20.3h83.7c11.2 0 20.3-9.1 20.3-20.3v-83.7c0-3.2-.7-6.2-2-8.8l37.4-37.4c2.1.7 4.3 1.1 6.6 1.1h83.7c11.2 0 20.3-9.1 20.3-20.3v-83.7c0-11.2-9.1-20.3-20.3-20.3h-83.7c-11.2 0-20.3 9.1-20.3 20.3v83.7c0 2.8.6 5.5 1.6 7.9l-38.1 38.1c-1.8-.5-3.6-.8-5.6-.8h-83.7c-1.9 0-3.8.3-5.6.8l-38.1-38.1c1-2.4 1.6-5.1 1.6-7.9v-83.7c0-11.2-9.1-20.3-20.3-20.3h-83.7c-11.2 0-20.3 9.1-20.3 20.3v83.7c0 2.8.6 5.5 1.6 7.9l-38.1 38.1c-1.8-.5-3.6-.8-5.6-.8H40.5c-11.2 0-20.3 9.1-20.3 20.3v83.7c0 11.2 9.1 20.3 20.3 20.3h83.7c11.2 0 20.3-9.1 20.3-20.3v-83.7c0-3.2-.7-6.2-2-8.8l37.4-37.5z" fill="url(#a23ca9a45-1be7-40b5-9436-d6ce29d47b8b)"></path><path d="M189.8 434.5c-1.6 0-2.9 1.3-2.9 2.9v12.1c0 1.6 1.3 2.9 2.9 2.9H202c1.6 0 2.9-1.3 2.9-2.9v-12.1c0-1.6-1.3-2.9-2.9-2.9h-12.2z" fill="#25bcbd"></path></svg></g></g><mask id="11ef5019-4bf2-4ffe-85b3-ced30fa7edc3"><g fill="white"><svg xmlns="http://www.w3.org/2000/svg" xmlns:xlink="http://www.w3.org/1999/xlink" xml:space="preserve" version="1.1" style="shape-rendering: geometricprecision; text-rendering: geometricprecision; overflow: visible;" viewBox="0 0 249 249" x="0" y="0" fill-rule="evenodd" clip-rule="evenodd" width="60" height="60" filtersec="colorsb8271659935"><g transform="scale(1, 1) skewX(0)"><defs></defs><g><path d="M125 0c68,0 124,56 124,125 0,68 -56,124 -124,124 -69,0 -125,-56 -125,-124 0,-69 56,-125 125,-125z"></path></g></g></svg></g> <g fill="black"><svg xmlns="http://www.w3.org/2000/svg" viewBox="0 8.699999809265137 618.0999755859375 620.5999755859375" width="40" height="40" x="10" y="10" class="image-svg-icon"><path d="M136.5 183.6H149c1.7 0 3-1.4 3-3v-12.5c0-1.7-1.4-3-3-3h-12.5c-1.7 0-3 1.4-3 3v12.5c-.1 1.7 1.3 3 3 3zM112.9 280.3v14.8c0 2 1.6 3.6 3.6 3.6h14.8c2 0 3.6-1.6 3.6-3.6v-14.8c0-2-1.6-3.6-3.6-3.6h-14.8c-2 0-3.6 1.6-3.6 3.6zM36.1 305.8v-24.3c0-3.2-2.6-5.9-5.9-5.9H5.9c-3.2 0-5.9 2.6-5.9 5.9v24.3c0 3.2 2.6 5.9 5.9 5.9h24.3c3.2 0 5.9-2.7 5.9-5.9zM42.6 260.9h58.5c7.8 0 14.2-6.4 14.2-14.2v-58.5c0-7.8-6.4-14.2-14.2-14.2H42.6c-7.8 0-14.2 6.4-14.2 14.2v58.5c0 7.8 6.4 14.2 14.2 14.2zM154.2 148.9h65.5c8.7 0 15.9-7.1 15.9-15.9V67.6c0-8.7-7.1-15.9-15.9-15.9h-65.5c-8.7 0-15.9 7.1-15.9 15.9v65.5c.1 8.7 7.2 15.8 15.9 15.8zM478.5 160h83.7c4.9 0 9.5.9 13.8 2.6-13.5-23.1-29.9-44.3-48.7-63.1C471.2 43.4 393.6 8.7 307.9 8.7V123.8c53.5 0 102 21.5 137.2 56.4 6.4-12 19-20.2 33.4-20.2zM261.7 118.2c-2.3 0-4.1 1.8-4.1 4.1v16.9c0 2.3 1.8 4.1 4.1 4.1h16.9c2.3 0 4.1-1.8 4.1-4.1v-16.9c0-2.3-1.8-4.1-4.1-4.1h-16.9zM77.5 153h26.1c3.5 0 6.3-2.8 6.3-6.3v-26.1c0-3.5-2.8-6.3-6.3-6.3H77.5c-3.5 0-6.3 2.8-6.3 6.3v26.1c0 3.4 2.9 6.3 6.3 6.3zM282.1 530.8h-13.2c-1.8 0-3.2 1.4-3.2 3.2v13.2c0 1.8 1.4 3.2 3.2 3.2h13.2c1.8 0 3.2-1.4 3.2-3.2V534c0-1.8-1.5-3.2-3.2-3.2zM599.8 281.4c0 20.7-16.9 37.7-37.7 37.7H503c0 107.8-87.4 195.1-195.2 195.1V629.3c85.7 0 163.3-34.7 219.4-90.9 56.1-56.1 90.9-133.7 90.9-219.4 0-37-6.5-72.5-18.4-105.4v67.8zM112.1 473.8H78.8c-4.4 0-8.1 3.6-8.1 8.1v33.3c0 4.4 3.6 8.1 8.1 8.1h33.3c4.4 0 8.1-3.6 8.1-8.1v-33.3c-.1-4.5-3.7-8.1-8.1-8.1zM282 460.2v-24.3c0-3.2-2.6-5.9-5.9-5.9h-24.3c-3.2 0-5.9 2.6-5.9 5.9v24.3c0 3.2 2.6 5.9 5.9 5.9h24.3c3.3 0 5.9-2.7 5.9-5.9zM230 493.4h-65.4c-8.7 0-15.9 7.1-15.9 15.9v65.4c0 8.7 7.1 15.9 15.9 15.9H230c8.7 0 15.9-7.1 15.9-15.9v-65.4c-.1-8.7-7.2-15.9-15.9-15.9zM253.2 390v-48.6c0-6.5-5.3-11.8-11.8-11.8h-48.6c-6.5 0-11.8 5.3-11.8 11.8V390c0 6.5 5.3 11.8 11.8 11.8h48.6c6.5 0 11.8-5.3 11.8-11.8z"></path><linearGradient id="a23ca9a45-1be7-40b5-9436-d6ce29d47b8b" gradientUnits="userSpaceOnUse" x1="20.209" y1="314.098" x2="582.468" y2="314.098"><stop offset="0" stop-color="#25bcbd"></stop><stop offset="1" stop-color="#c2d72e"></stop></linearGradient><path d="M179.9 300.5c2.1.7 4.3 1.1 6.6 1.1h83.7c2.3 0 4.6-.4 6.6-1.1l37.4 37.4c-1.3 2.7-2 5.7-2 8.8v83.7c0 11.2 9.1 20.3 20.3 20.3h83.7c11.2 0 20.3-9.1 20.3-20.3v-83.7c0-3.2-.7-6.2-2-8.8l37.4-37.4c2.1.7 4.3 1.1 6.6 1.1h83.7c11.2 0 20.3-9.1 20.3-20.3v-83.7c0-11.2-9.1-20.3-20.3-20.3h-83.7c-11.2 0-20.3 9.1-20.3 20.3v83.7c0 2.8.6 5.5 1.6 7.9l-38.1 38.1c-1.8-.5-3.6-.8-5.6-.8h-83.7c-1.9 0-3.8.3-5.6.8l-38.1-38.1c1-2.4 1.6-5.1 1.6-7.9v-83.7c0-11.2-9.1-20.3-20.3-20.3h-83.7c-11.2 0-20.3 9.1-20.3 20.3v83.7c0 2.8.6 5.5 1.6 7.9l-38.1 38.1c-1.8-.5-3.6-.8-5.6-.8H40.5c-11.2 0-20.3 9.1-20.3 20.3v83.7c0 11.2 9.1 20.3 20.3 20.3h83.7c11.2 0 20.3-9.1 20.3-20.3v-83.7c0-3.2-.7-6.2-2-8.8l37.4-37.5z"></path><path d="M189.8 434.5c-1.6 0-2.9 1.3-2.9 2.9v12.1c0 1.6 1.3 2.9 2.9 2.9H202c1.6 0 2.9-1.3 2.9-2.9v-12.1c0-1.6-1.3-2.9-2.9-2.9h-12.2z"></path></svg></g></mask></svg> <!----></g> <g transform="translate(97.36416625976562,30.827082633972168)"><g data-gra="path-name" fill-rule="" class="tp-name iconsvg-namesvg"><g transform="scale(1)"><g><path d="M3.39-30.18L4-29.22C4.25-28.76 4.35-28.46 4.35-28L4.35-4.56C4.35-3.59 4.91-3.04 5.87-3.04L12.46-3.04C13.42-3.04 13.97-3.59 13.97-4.56L13.97-14.68C13.97-15.34 14.33-15.7 14.99-15.7L24.3-15.7C24.96-15.7 25.32-15.34 25.32-14.68L25.32-4.56C25.32-3.59 25.87-3.04 26.84-3.04L33.37-3.04C34.33-3.04 34.89-3.59 34.89-4.56L34.89-30.18C34.89-31.14 34.33-31.7 33.37-31.7L25.57-31.7C24.35-31.7 23.9-30.89 24.56-29.87L24.96-29.22C25.22-28.76 25.32-28.46 25.32-28L25.32-21.57C25.32-20.91 24.96-20.56 24.3-20.56L14.99-20.56C14.33-20.56 13.97-20.91 13.97-21.57L13.97-30.18C13.97-31.14 13.42-31.7 12.46-31.7L4.61-31.7C3.39-31.7 2.84-31.04 3.39-30.18ZM42.94-28.35L42.94-6.43C42.94-4.15 44.61-3.04 46.38-3.04L70.03-3.04C72.2-3.04 73.37-4.25 73.37-6.38L73.37-28.3C73.37-30.38 71.65-31.7 70.08-31.7L46.28-31.7C44.1-31.7 42.94-30.48 42.94-28.35ZM63.85-25.82L63.85-8.91C63.85-8.25 63.49-7.9 62.84-7.9L53.42-7.9C52.76-7.9 52.41-8.25 52.41-8.91L52.41-25.82C52.41-26.48 52.76-26.84 53.42-26.84L62.84-26.84C63.49-26.84 63.85-26.48 63.85-25.82ZM100.51-4.51L100.56-25.77C100.56-26.43 100.91-26.78 101.57-26.78L109.42-26.78C110.38-26.78 110.94-27.34 110.94-28.3L110.94-30.13C110.94-31.09 110.38-31.65 109.42-31.65L81.57-31.65C80.61-31.65 80.05-31.09 80.05-30.13L80.05-28.3C80.05-27.34 80.61-26.78 81.57-26.78L89.82-26.78C90.48-26.78 90.84-26.43 90.84-25.77L90.78-4.51C90.78-3.54 91.34-2.99 92.3-2.99L98.99-2.99C99.95-2.99 100.51-3.49 100.51-4.51ZM117.37-28.35L117.37-6.43C117.37-4.15 119.04-3.04 120.81-3.04L144.46-3.04C146.63-3.04 147.8-4.25 147.8-6.38L147.8-28.3C147.8-30.38 146.08-31.7 144.51-31.7L120.71-31.7C118.53-31.7 117.37-30.48 117.37-28.35ZM138.28-25.82L138.28-8.91C138.28-8.25 137.92-7.9 137.27-7.9L127.85-7.9C127.19-7.9 126.84-8.25 126.84-8.91L126.84-25.82C126.84-26.48 127.19-26.84 127.85-26.84L137.27-26.84C137.92-26.84 138.28-26.48 138.28-25.82ZM155.24-30.18L155.85-29.22C156.1-28.76 156.2-28.46 156.2-28L156.2-4.56C156.2-3.59 156.76-3.04 157.72-3.04L163.29-3.04C164.25-3.04 164.81-3.59 164.81-4.56L164.81-14.68C164.81-15.7 165.57-15.9 165.97-14.94L169.87-6.13C170.23-5.37 170.78-4.96 171.65-4.96L176.91-4.96C177.77-4.96 178.33-5.37 178.68-6.13L182.78-15.44C183.19-16.41 183.95-16.2 183.95-15.19L183.95-4.56C183.95-3.59 184.51-3.04 185.47-3.04L190.99-3.04C191.95-3.04 192.51-3.59 192.51-4.56L192.51-30.18C192.51-31.14 191.95-31.7 190.99-31.7L183.44-31.7C182.58-31.7 182.03-31.29 181.67-30.53L175.19-15.29C174.84-14.43 174.18-14.43 173.82-15.29L167.14-30.53C166.78-31.29 166.23-31.7 165.37-31.7L156.46-31.7C155.24-31.7 154.68-31.04 155.24-30.18ZM200.15-30.18L200.76-29.22C201.01-28.76 201.11-28.46 201.11-28L201.11-4.56C201.11-3.59 201.67-3.04 202.63-3.04L226.63-3.04C227.59-3.04 228.15-3.59 228.15-4.56L228.15-6.38C228.15-7.34 227.59-7.9 226.63-7.9L212.1-7.9C211.44-7.9 211.09-8.25 211.09-8.91L211.09-14.68C211.09-15.34 211.44-15.7 212.1-15.7L224.86-15.7C225.82-15.7 226.38-16.25 226.38-17.22L226.38-19.04C226.38-20 225.82-20.56 224.86-20.56L212.1-20.56C211.44-20.56 211.09-20.91 211.09-21.57L211.09-25.82C211.09-26.48 211.44-26.84 212.1-26.84L225.72-26.84C226.68-26.84 227.24-27.39 227.24-28.35L227.24-30.18C227.24-31.14 226.68-31.7 225.72-31.7L201.37-31.7C200.15-31.7 199.59-31.04 200.15-30.18Z" transform="translate(-3.1764845848083496, 31.700000762939453)"></path></g> <!----> <!----> <!----> <!----> <!----> <!----> <!----></g></g> <!----></g></g><defs v-gra="od"></defs></svg>