
<svg data-noselect="" viewBox="0 0 800 600" width="800" height="600" preserveAspectRatio="none" version="1.1" xmlns="http://www.w3.org/2000/svg" xmlns:xlink="http://www.w3.org/1999/xlink" class="svg-canvas"><defs></defs> <g id="background" data-noselect=""><rect fill="#FFFFFF" width="800" height="600" data-noselect=""></rect> <!----></g> <g id="shape_iNqCFiZ4Q7" transform="translate(160,220.35461569952) rotate(0,104.47696088974,79.645384300482) scale(1,1)" filter="" style="opacity: 1;"><g><rect fill="rgba(0,0,0,0)" width="228.95392177948" height="179.29076860096" x="-10" y="-10"></rect><svg version="1.1" id="图层_1" xmlns="http://www.w3.org/2000/svg" xmlns:xlink="http://www.w3.org/1999/xlink" x="0px" y="0px" viewBox="0 0 96.35 73.45" style="enable-background:new 0 0 96.35 73.45;" xml:space="preserve" width="208.95392177948" height="159.29076860096" class="style-removed" preserveAspectRatio="none" data-parent="shape_iNqCFiZ4Q7">

<g>
	<path d="M60.35,61.13c-4.53,2.94-9.91,4.63-15.68,4.63c-3.67,0-7.17-0.69-10.43-1.94l-3.36,4.32l-0.63,0.79
		c4.4,2,9.28,3.09,14.41,3.09c7.28,0,14.04-2.21,19.67-5.99L60.35,61.13z M44.67,1.44c-5.3,0-10.34,1.17-14.85,3.27l4.11,5.05
		c3.34-1.33,6.94-2.06,10.74-2.06c5.69,0,11.01,1.65,15.47,4.5L64,7.22C58.46,3.55,51.8,1.44,44.67,1.44z M78.44,26.47l-5.05,5.99
		c0.21,1.4,0.31,2.82,0.31,4.28c0,1.81-0.17,3.59-0.48,5.3l5.05,5.51c1.11-3.4,1.69-7.03,1.69-10.8
		C79.96,33.16,79.44,29.72,78.44,26.47z M17.83,25.63l-4.57-4.98c-2.48,4.82-3.88,10.28-3.88,16.08c0,5.71,1.36,11.09,3.77,15.87
		l4.48-5.3c-1.29-3.27-2-6.84-2-10.57C15.64,32.8,16.43,29.05,17.83,25.63z" fill="#5AEFA5" stroke-width="0"></path>
	<g>
		<polygon points="42.9,39.71 45.34,42.69 30.39,61.98 27.59,65.57 25.34,66.24 0.94,73.45 15.39,56.41 19.65,51.41 
			38.48,29.2 27.82,30.34 19.87,21.67 15.5,16.89 0,0 25.51,6.03 26.09,6.74 30.09,11.66 45.71,30.8 42.84,34.51 40.79,37.14 		" fill="#00C5A7" stroke-width="0"></polygon>
	</g>
	<g>
		<polygon points="96.35,73.45 70.86,67.42 67.65,63.48 63.69,58.62 50.66,42.65 49.32,40.98 47.95,39.31 46.13,37.08 
			48.43,34.14 49.72,32.45 51.03,30.76 63.52,14.66 67.36,9.72 68.78,7.88 95.43,0 76.75,22.02 72.16,27.45 57.89,44.25 
			68.55,43.11 71.91,46.76 76.56,51.85 		" fill="#00C5A7" stroke-width="0"></polygon>
	</g>
</g>
</svg></g></g><g id="shape_kV4oGUnjcn" transform="translate(274.4639217794799,-49.96999999999997) rotate(0,236.99,339.96999999999997) scale(1,1)" filter="" style="opacity: 1;"><g><svg xmlns="http://www.w3.org/2000/svg" version="1.1" xmlns:xlink="http://www.w3.org/1999/xlink" width="662.96" height="679.9399999999999" viewBox="0 0 662.96 679.9399999999999" data-parent="shape_kV4oGUnjcn"><g data-width="268.35159999999996" transform="translate(94.49, 0)"><path d="M67.09-51.21L78.43-51.21L84.95-13.51L71.91-13.51L67.09-41.20L67.09 0.09L53.95 0.09L53.95-27.31L50.27-13.51L36.57-13.51L48.57-58.77L39.21-58.77L39.21-68.13L84.95-68.13L84.95-58.77L62.27-58.77L60.28-51.21L65.29-51.21L67.09-51.21ZM12.66-68.13L25.80-68.13L36.57-68.13L36.57-58.77L25.80-58.77L25.80-38.65L36.57-38.65L36.57-29.39L25.80-29.39L25.80-11.15L36.57-12.00L36.57-2.74L1.98 0.09L1.98-9.26L12.66-10.11L12.66-29.39L1.98-29.39L1.98-38.65L12.66-38.65L12.66-58.77L1.98-58.77L1.98-68.13L12.66-68.13Z" transform="translate(0 373.46999999999997) " fill="#5aefa5" stroke="#5aefa5" stroke-width="0.157" data-glyph-w="86.93079999999999" data-glyph-h="94.49" data-glyph-ascender="81.16690999999999" data-glyph-descender="-13.323089999999999"></path><path d="M34.30-29.01L34.30-12.28Q34.30-11.06 35.15-10.20Q36.00-9.35 37.32-9.35L37.32-9.35L66.24-9.35L64.16 0L31.56 0Q29.39 0 27.54-0.80Q25.70-1.61 24.28-3.02Q22.87-4.44 22.06-6.33Q21.26-8.22 21.26-10.39L21.26-10.39L21.26-29.01L34.30-29.01ZM16.82-29.01L14.46-0.09L1.51-0.09L3.87-29.01L16.82-29.01ZM66.80-29.01L79.75-29.01L85.32-0.09L72.38-0.09L66.80-29.01ZM58.96-29.01L61.70-12.76L48.95-12.76L46.21-29.01L58.96-29.01ZM84.47-62.46L84.47-53.20L65.39-53.20L84.47-33.45L68.69-33.45L49.70-53.20L45.07-53.20L33.83-44.13L46.96-44.13L52.73-33.17L39.02-33.17L33.45-43.75L20.69-33.45L1.80-33.45L27.12-53.20L1.51-53.20L1.51-62.46L36.19-62.46L36.19-68.13L49.89-68.13L49.89-62.46L84.47-62.46Z" transform="translate(86.93079999999999 373.46999999999997) " fill="#5aefa5" stroke="#5aefa5" stroke-width="0.157" data-glyph-w="86.93079999999999" data-glyph-h="94.49" data-glyph-ascender="81.16690999999999" data-glyph-descender="-13.323089999999999"></path><path d="M70.30-8.98L73.23-8.98Q73.89-8.98 74.17-9.45L74.17-9.45Q74.55-10.02 74.55-10.49L74.55-10.49L74.55-15.40L58.58-15.40L58.58-7.56L56.98-0.28L44.98-0.28L46.68-7.56L46.68-49.89L77.39-49.89Q79.47-49.89 81.26-49.13Q83.06-48.38 84.38-47.01Q85.70-45.64 86.46-43.84Q87.21-42.05 87.21-40.06L87.21-40.06L87.21-9.92Q87.21-7.94 86.46-6.14L86.46-6.14Q85.99-4.63 84.57-3.12L84.57-3.12Q83.81-2.46 83.10-1.94Q82.40-1.42 81.64-1.04L81.64-1.04Q79.66-0.28 77.86-0.28L77.86-0.28L67.84-0.28L70.30-8.98ZM42.61-49.89L42.61-12.28Q42.61-10.02 41.86-8.22L41.86-8.22Q40.91-6.24 39.78-4.91L39.78-4.91Q39.02-4.25 38.27-3.69Q37.51-3.12 36.47-2.65L36.47-2.65Q34.58-1.89 32.60-1.89L32.60-1.89L7.84-1.89L7.84-49.89L42.61-49.89ZM22.11-52.82L20.60-56.88L5.57-56.88L5.57-64.73L17.20-64.73L15.97-67.75L29.67-67.75L30.90-64.73L63.50-64.73L64.73-67.75L78.43-67.75L77.20-64.73L88.82-64.73L88.82-56.88L73.99-56.88L72.28-52.82L58.68-52.82L60.28-56.88L34.11-56.88L35.81-52.82L22.11-52.82ZM30.90-30.33L30.90-41.67L19.65-41.67L19.65-30.33L30.90-30.33ZM30.90-14.08L30.90-21.64L19.65-21.64L19.65-11.43L28.35-11.43Q29.39-11.43 30.14-12.28L30.14-12.28Q30.90-13.04 30.90-14.08L30.90-14.08ZM72.19-41.58L58.58-41.58L58.58-35.62L74.55-35.62L74.55-39.02Q74.55-40.44 73.94-41.01Q73.32-41.58 72.19-41.58L72.19-41.58ZM58.58-22.87L74.55-22.87L74.55-28.16L58.58-28.16L58.58-22.87Z" transform="translate(173.86159999999998 373.46999999999997) " fill="#5aefa5" stroke="#5aefa5" stroke-width="0.157" data-glyph-w="94.49" data-glyph-h="94.49" data-glyph-ascender="81.16690999999999" data-glyph-descender="-13.323089999999999"></path></g></svg></g></g><g id="shape_2TmUbKfzcd" transform="translate(328.9539217794799,206.1) rotate(0,152,140.4) scale(1,1)" filter="" style="opacity: 1;"><g><svg xmlns="http://www.w3.org/2000/svg" version="1.1" xmlns:xlink="http://www.w3.org/1999/xlink" width="384" height="280.8" viewBox="0 0 384 280.8" data-parent="shape_2TmUbKfzcd"><g data-width="192" transform="translate(40, 0)"><path d="M29.68-24.80L29.68-1.80L21.72-1.80L21.72-15L21.72-24.80L29.68-24.80ZM19.20-11.96L9.72-11.96L9.72-1.80L1.60-1.80L1.60-24.80L9.72-24.80L9.72-15L21.72-15L19.20-11.96Z" transform="translate(0 154.4) " fill="#007362" stroke="#007362" stroke-width="1.333" data-glyph-w="31.28" data-glyph-h="40.04" data-glyph-ascender="34.4" data-glyph-descender="-5.64"></path><path d="M18.72-21.72L9.72-21.72L9.72-4.88L21.52-4.88L21.52-24.80L29.64-24.80L29.64-1.80L1.60-1.80L1.60-24.80L21.52-24.80L18.72-21.72Z" transform="translate(31.28 154.4) " fill="#007362" stroke="#007362" stroke-width="1.333" data-glyph-w="31.240000000000002" data-glyph-h="40.04" data-glyph-ascender="34.4" data-glyph-descender="-5.64"></path><path d="M19.84-21.72L19.84-1.80L11.84-1.80L11.84-21.72L1.60-21.72L1.60-24.80L30.80-24.80L29.04-21.72L19.84-21.72Z" transform="translate(62.52 154.4) " fill="#007362" stroke="#007362" stroke-width="1.333" data-glyph-w="32.4" data-glyph-h="40.04" data-glyph-ascender="34.4" data-glyph-descender="-5.64"></path><path d="M18.72-21.72L9.72-21.72L9.72-4.88L21.52-4.88L21.52-24.80L29.64-24.80L29.64-1.80L1.60-1.80L1.60-24.80L21.52-24.80L18.72-21.72Z" transform="translate(94.92 154.4) " fill="#007362" stroke="#007362" stroke-width="1.333" data-glyph-w="31.240000000000002" data-glyph-h="40.04" data-glyph-ascender="34.4" data-glyph-descender="-5.64"></path><path d="M35.64-24.80L35.64-1.80L28.44-1.80L28.44-16.60L21.76-1.80L15.60-1.80L9-16.40L9-1.80L1.60-1.80L1.60-24.80L11.52-24.80L18.76-9.04L26.04-24.80L35.64-24.80Z" transform="translate(126.16 154.4) " fill="#007362" stroke="#007362" stroke-width="1.333" data-glyph-w="37.24" data-glyph-h="40.04" data-glyph-ascender="34.4" data-glyph-descender="-5.64"></path><path d="M9.68-4.80L27-4.80L25.24-1.80L1.60-1.80L1.60-24.80L26.92-24.80L25.12-21.80L9.68-21.80L9.68-15.08L26.24-15.08L24.48-12.04L9.68-12.04L9.68-4.80Z" transform="translate(163.4 154.4) " fill="#007362" stroke="#007362" stroke-width="1.333" data-glyph-w="28.6" data-glyph-h="40.04" data-glyph-ascender="34.4" data-glyph-descender="-5.64"></path></g></svg></g></g></svg>