<svg width="780" height="280" xmlns="http://www.w3.org/2000/svg" class="svg-canvas" version="1.1" preserveAspectRatio="none">

 <g>
  <title>Layer 1</title>
  <g id="svg_32">
   <g transform="translate(7.77778 8.13239) scale(1 1)" id="shape_iNqCFiZ4Q7">
    <g id="svg_6">
     <rect id="svg_7" y="-5.0453" x="1.4464" height="273.8258" width="352.96278" fill="rgba(0,0,0,0)"/>
     <svg data-parent="shape_iNqCFiZ4Q7" preserveAspectRatio="none" class="style-removed" height="253.8258" width="332.96278" xml:space="preserve" viewBox="0 0 96.35 73.45" y="4.9547" x="11.4464" id="svg_1" version="1.1" xmlns:xlink="http://www.w3.org/1999/xlink" xmlns="http://www.w3.org/2000/svg">
      <g id="svg_8">
       <path id="svg_9" stroke-width="0" fill="#5aefa5" d="m60.35,61.13c-4.53,2.94 -9.91,4.63 -15.68,4.63c-3.67,0 -7.17,-0.69 -10.43,-1.94l-3.36,4.32l-0.63,0.79c4.4,2 9.28,3.09 14.41,3.09c7.28,0 14.04,-2.21 19.67,-5.99l-3.98,-4.9zm-15.68,-59.69c-5.3,0 -10.34,1.17 -14.85,3.27l4.11,5.05c3.34,-1.33 6.94,-2.06 10.74,-2.06c5.69,0 11.01,1.65 15.47,4.5l3.86,-4.98c-5.54,-3.67 -12.2,-5.78 -19.33,-5.78zm33.77,25.03l-5.05,5.99c0.21,1.4 0.31,2.82 0.31,4.28c0,1.81 -0.17,3.59 -0.48,5.3l5.05,5.51c1.11,-3.4 1.69,-7.03 1.69,-10.8c0,-3.59 -0.52,-7.03 -1.52,-10.28zm-60.61,-0.84l-4.57,-4.98c-2.48,4.82 -3.88,10.28 -3.88,16.08c0,5.71 1.36,11.09 3.77,15.87l4.48,-5.3c-1.29,-3.27 -2,-6.84 -2,-10.57c0.01,-3.93 0.8,-7.68 2.2,-11.1z"/>
       <g id="svg_10">
        <polygon id="svg_11" stroke-width="0" fill="#00c5a7" points="42.9,39.71 45.34,42.69 30.39,61.98 27.59,65.57 25.34,66.24 0.94,73.45 15.39,56.41 19.65,51.41     38.48,29.2 27.82,30.34 19.87,21.67 15.5,16.89 0,0 25.51,6.03 26.09,6.74 30.09,11.66 45.71,30.8 42.84,34.51 40.79,37.14   "/>
       </g>
       <g id="svg_12">
        <polygon id="svg_13" stroke-width="0" fill="#00c5a7" points="96.35,73.45 70.86,67.42 67.65,63.48 63.69,58.62 50.66,42.65 49.32,40.98 47.95,39.31 46.13,37.08     48.43,34.14 49.72,32.45 51.03,30.76 63.52,14.66 67.36,9.72 68.78,7.88 95.43,0 76.75,22.02 72.16,27.45 57.89,44.25     68.55,43.11 71.91,46.76 76.56,51.85   "/>
       </g>
      </g>
     </svg>
    </g>
   </g>
   <g transform="translate(190.171 -422.631) scale(1 1)" id="shape_kV4oGUnjcn">
    <svg y="4.9547" x="11.4464" id="svg_14" data-parent="shape_kV4oGUnjcn" viewBox="0 0 1056.4202743108517 1083.42" height="1083.42" width="1056.42027" version="1.1" xmlns:xlink="http://www.w3.org/1999/xlink" xmlns="http://www.w3.org/2000/svg">
     <g id="svg_15" data-width="427.6188">
      <path id="svg_16" data-glyph-descender="-21.23037" data-glyph-ascender="129.33963" data-glyph-h="150.57" data-glyph-w="138.5244" stroke-width="0.251" stroke="#5aefa5" fill="#5aefa5" d="m257.47001,514.10002l18.07,0l10.39,60.08l-20.78,0l-7.68,-44.12l0,65.8l-20.92,0l0,-43.66l-5.88,21.98l-21.83,0l19.12,-72.12l-14.9,0l0,-14.91l72.87,0l0,14.91l-36.13,0l-3.17,12.04l7.98,0l2.86,0zm-86.72,-26.95l20.93,0l17.16,0l0,14.91l-17.16,0l0,32.07l17.16,0l0,14.75l-17.16,0l0,29.06l17.16,-1.35l0,14.75l-55.11,4.52l0,-14.91l17.02,-1.35l0,-30.72l-17.02,0l0,-14.75l17.02,0l0,-32.07l-17.02,0l0,-14.91l17.02,0z"/>
      <path id="svg_17" data-glyph-descender="-21.23037" data-glyph-ascender="129.33963" data-glyph-h="150.57" data-glyph-w="138.5244" stroke-width="0.251" stroke="#5aefa5" fill="#5aefa5" d="m343.75441,549.49002l0,26.65q0,1.95 1.35,3.31q1.36,1.35 3.47,1.35l0,0l46.07,0l-3.31,14.91l-51.95,0q-3.46,0 -6.4,-1.28q-2.93,-1.28 -5.19,-3.54q-2.26,-2.26 -3.54,-5.27q-1.28,-3.01 -1.28,-6.47l0,0l0,-29.66l20.78,0zm-27.86,0l-3.76,46.07l-20.63,0l3.76,-46.07l20.63,0zm79.65,0l20.63,0l8.88,46.07l-20.62,0l-8.89,-46.07zm-12.49,0l4.36,25.89l-20.32,0l-4.37,-25.89l20.33,0zm40.65,-53.31l0,14.76l-30.42,0l30.42,31.47l-25.15,0l-30.26,-31.47l-7.38,0l-17.92,14.45l20.93,0l9.19,17.47l-21.83,0l-8.89,-16.86l-20.33,16.41l-30.11,0l40.35,-31.47l-40.8,0l0,-14.76l55.26,0l0,-9.03l21.83,0l0,9.03l55.11,0z"/>
      <path id="svg_18" data-glyph-descender="-21.23037" data-glyph-ascender="129.33963" data-glyph-h="150.57" data-glyph-w="150.57" stroke-width="0.251" stroke="#5aefa5" fill="#5aefa5" d="m539.6388,581.41002l4.67,0q1.06,0 1.51,-0.76l0,0q0.6,-0.9 0.6,-1.65l0,0l0,-7.83l-25.45,0l0,12.49l-2.56,11.6l-19.12,0l2.71,-11.6l0,-67.45l48.94,0q3.31,0 6.17,1.2q2.86,1.21 4.97,3.39q2.11,2.18 3.31,5.05q1.21,2.86 1.21,6.02l0,0l0,48.03q0,3.16 -1.21,6.02l0,0q-0.75,2.41 -3.01,4.82l0,0q-1.2,1.06 -2.33,1.88q-1.13,0.83 -2.34,1.43l0,0q-3.16,1.21 -6.02,1.21l0,0l-15.96,0l3.91,-13.85zm-44.11,-65.2l0,59.93q0,3.61 -1.21,6.47l0,0q-1.5,3.16 -3.31,5.27l0,0q-1.2,1.05 -2.41,1.96q-1.2,0.9 -2.86,1.65l0,0q-3.01,1.21 -6.17,1.21l0,0l-39.45,0l0,-76.49l55.41,0zm-32.68,-4.67l-2.41,-6.47l-23.94,0l0,-12.5l18.52,0l-1.95,-4.82l21.83,0l1.96,4.82l51.94,0l1.96,-4.82l21.83,0l-1.95,4.82l18.52,0l0,12.5l-23.64,0l-2.71,6.47l-21.69,0l2.56,-6.47l-41.7,0l2.71,6.47l-21.84,0zm14.01,35.84l0,-18.07l-17.92,0l0,18.07l17.92,0zm0,25.9l0,-12.05l-17.92,0l0,16.26l13.85,0q1.66,0 2.86,-1.35l0,0q1.21,-1.21 1.21,-2.86l0,0zm65.8,-43.82l-21.69,0l0,9.49l25.45,0l0,-5.43q0,-2.25 -0.98,-3.16q-0.98,-0.9 -2.78,-0.9l0,0zm-21.69,29.81l25.45,0l0,-8.43l-25.45,0l0,8.43z"/>
     </g>
    </svg>
   </g>
   <g transform="translate(277.001 -14.764) scale(1 1)" id="shape_2TmUbKfzcd">
    <svg y="4.9547" x="11.4464" id="svg_19" data-parent="shape_2TmUbKfzcd" viewBox="0 0 611.8983208618624 447.07280000000003" height="447.0728" width="611.89832" version="1.1" xmlns:xlink="http://www.w3.org/1999/xlink" xmlns="http://www.w3.org/2000/svg">
     <g id="svg_20" data-width="305.952">
      <path id="svg_21" data-glyph-descender="-8.98734" data-glyph-ascender="54.8164" data-glyph-h="63.80374" data-glyph-w="49.84468" stroke-width="2.125" stroke="#007362" fill="#007362" d="m111.04,206.51641l0,36.65l-12.69,0l0,-21.03l0,-15.62l12.69,0zm-16.7,20.46l-15.11,0l0,16.19l-12.94,0l0,-36.65l12.94,0l0,15.62l19.12,0l-4.01,4.84z"/>
      <path id="svg_22" data-glyph-descender="-8.98734" data-glyph-ascender="54.8164" data-glyph-h="63.80374" data-glyph-w="49.78094" stroke-width="2.125" stroke="#007362" fill="#007362" d="m143.41468,211.42641l-14.34,0l0,26.83l18.8,0l0,-31.74l12.94,0l0,36.65l-44.68,0l0,-36.65l31.74,0l-4.46,4.91z"/>
      <path id="svg_23" data-glyph-descender="-8.98734" data-glyph-ascender="54.8164" data-glyph-h="63.80374" data-glyph-w="51.6294" stroke-width="2.125" stroke="#007362" fill="#007362" d="m194.98562,211.42641l0,31.74l-12.75,0l0,-31.74l-16.32,0l0,-4.91l46.53,0l-2.8,4.91l-14.66,0z"/>
      <path id="svg_24" data-glyph-descender="-8.98734" data-glyph-ascender="54.8164" data-glyph-h="63.80374" data-glyph-w="49.78094" stroke-width="2.125" stroke="#007362" fill="#007362" d="m244.82502,211.42641l-14.34,0l0,26.83l18.8,0l0,-31.74l12.94,0l0,36.65l-44.68,0l0,-36.65l31.74,0l-4.46,4.91z"/>
      <path id="svg_25" data-glyph-descender="-8.98734" data-glyph-ascender="54.8164" data-glyph-h="63.80374" data-glyph-w="59.34194" stroke-width="2.125" stroke="#007362" fill="#007362" d="m321.56597,206.51641l0,36.65l-11.47,0l0,-23.58l-10.65,23.58l-9.81,0l-10.52,-23.26l0,23.26l-11.79,0l0,-36.65l15.81,0l11.53,25.11l11.6,-25.11l15.3,0z"/>
      <path id="svg_26" data-glyph-descender="-8.98734" data-glyph-ascender="54.8164" data-glyph-h="63.80374" data-glyph-w="45.5741" stroke-width="2.125" stroke="#007362" fill="#007362" d="m339.5479,238.38641l27.59,0l-2.8,4.78l-37.67,0l0,-36.65l40.35,0l-2.87,4.78l-24.6,0l0,10.71l26.38,0l-2.8,4.84l-23.58,0l0,11.54z"/>
     </g>
    </svg>
   </g>
  </g>
 </g>
</svg>